<?xml version="1.0" encoding="UTF-8"?>
<svg xmlns="http://www.w3.org/2000/svg" width="259" height="18" viewBox="0 0 259 18" fill="none">
  <g clip-path="url(#clip0_4693_4666)">
    <path d="M0 0V17.7031H11.0893V15.9216H1.99607V0H0Z" fill="#433C35"></path>
    <path d="M13.2694 11.9505V0.0371094H15.2655V11.5794C15.2655 14.734 17.1506 16.1814 19.8121 16.1814C22.6583 16.1814 24.3956 14.5485 24.3217 11.6536V0.0371094H26.2808V11.8021C26.2808 15.699 23.6564 18 19.7381 18C16.3374 18 13.2324 16.1814 13.2324 11.9134" fill="#433C35"></path>
    <path d="M29.7559 0.0371094H32.1955L37.7401 10.8742L43.1739 0.0371094H45.6135V17.7031H43.6914V3.52577H43.6544L38.4794 13.6206H36.9269L31.7519 3.56288H31.678V17.7031H29.7559V0.0371094Z" fill="#433C35"></path>
    <path d="M51.2324 0.0371094H49.2363V17.7031H51.2324V0.0371094Z" fill="#433C35"></path>
    <path d="M54.8184 0H56.8144L65.8707 14.2515H65.9446V0H67.8298V17.7031H65.8707L56.7405 3.30309H56.6666V17.7031H54.8184V0Z" fill="#433C35"></path>
    <path d="M77.107 0H78.9552L85.4609 17.7031H83.3539L81.5427 12.5814H74.3716L72.5234 17.7031H70.5273L77.107 0ZM80.9882 10.9113L77.9941 2.41237L74.9631 10.9113H81.0252H80.9882Z" fill="#433C35"></path>
    <path d="M90.1191 0.0371094H88.123V17.7031H90.1191V0.0371094Z" fill="#433C35"></path>
    <path d="M93.7051 0H99.952C103.316 0 105.718 1.9299 105.718 5.2701C105.718 7.68247 104.351 9.83505 101.431 10.3918L106.532 17.7031H104.314L99.3606 10.5773H95.7381V17.7031H93.742V0H93.7051ZM99.4715 8.90722C102.133 8.90722 103.685 7.7567 103.685 5.2701C103.685 2.7835 102.022 1.70722 99.4345 1.70722H95.6642V8.90722H99.4715Z" fill="#433C35"></path>
    <path d="M109.193 0H120.504V1.81856H111.189V7.71959H119.026V9.46392H111.189V15.9216H120.541V17.7031H109.193V0Z" fill="#433C35"></path>
    <path d="M135.437 0H137.285L143.791 17.7031H141.684L139.873 12.5814H132.702L130.853 17.7031H128.857L135.437 0ZM139.281 10.9113L136.287 2.41237L133.256 10.9113H139.318H139.281Z" fill="#433C35"></path>
    <path d="M145.639 11.9505V0.0371094H147.635V11.5794C147.635 14.734 149.52 16.1814 152.181 16.1814C155.027 16.1814 156.765 14.5485 156.691 11.6536V0.0371094H158.65V11.8021C158.65 15.699 156.025 18 152.107 18C148.707 18 145.602 16.1814 145.602 11.9134" fill="#433C35"></path>
    <path d="M167.005 1.74433H161.275V0.0371094H174.693V1.74433H168.964V17.7031H167.005V1.74433Z" fill="#433C35"></path>
    <path d="M177.355 0.0371094H179.352V7.71958H188.26V0.0371094H190.256V17.7031H188.26V9.46392H179.352V17.7031H177.355V0.0371094Z" fill="#433C35"></path>
    <path d="M193.582 0H204.856V1.81856H195.578V7.71959H203.378V9.46392H195.578V15.9216H204.93V17.7031H193.582V0Z" fill="#433C35"></path>
    <path d="M207.961 0H209.957L219.05 14.2515H219.087V0H220.972V17.7031H219.05L209.883 3.30309H209.846V17.7031H207.961V0Z" fill="#433C35"></path>
    <path d="M229.401 1.74433H223.672V0.0371094H237.053V1.74433H231.36V17.7031H229.401V1.74433Z" fill="#433C35"></path>
    <path d="M242.152 0.0371094H240.156V17.7031H242.152V0.0371094Z" fill="#433C35"></path>
    <path d="M245.332 0H247.365V9.27835L255.867 0H258.27L251.801 6.97732L258.75 17.7031H256.421L250.507 8.46186L247.365 11.6907V17.7031H245.332V0Z" fill="#433C35"></path>
  </g>
  <defs>
    <clipPath id="clip0_4693_4666">
      <rect width="258.75" height="18" fill="white"></rect>
    </clipPath>
  </defs>
</svg>
