<svg width="8" height="12" viewBox="0 0 8 12" fill="none" xmlns="http://www.w3.org/2000/svg">
<path d="M3.63999 2.84804C3.26666 2.84804 2.95199 2.73071 2.69599 2.49604C2.45066 2.25071 2.32799 1.95204 2.32799 1.60004C2.32799 1.24804 2.45066 0.954709 2.69599 0.720042C2.95199 0.485375 3.26666 0.368042 3.63999 0.368042C4.02399 0.368042 4.33866 0.485375 4.58399 0.720042C4.83999 0.954709 4.96799 1.24804 4.96799 1.60004C4.96799 1.95204 4.83999 2.25071 4.58399 2.49604C4.33866 2.73071 4.02399 2.84804 3.63999 2.84804ZM0.455994 12V10.528H2.95199V6.06404C2.95199 5.71204 2.78133 5.53604 2.43999 5.53604H0.679994V4.06404H2.74399C3.40533 4.06404 3.88533 4.21871 4.18399 4.52804C4.49333 4.82671 4.64799 5.30671 4.64799 5.96804V10.528H7.14399V12H0.455994Z" fill="#433C35"/>
</svg>
