<svg width="49" height="14" viewBox="0 0 49 14" fill="none" xmlns="http://www.w3.org/2000/svg">
<path d="M43.8794 10.7411C43.8794 10.7411 43.1054 13.8229 39.4062 13.8229V11.5984C39.4062 11.5984 41.389 11.7749 41.8293 10.7383H43.8794V10.7411Z" fill="#282828"/>
<path d="M16.7068 6.94003H17.1359V6.36289C17.1359 3.88344 15.6467 2.23047 13.0834 2.23047C10.1891 2.23047 8.78125 4.21403 8.78125 6.60943V6.94003H16.7068ZM13.0834 3.71814C14.0762 3.71814 14.8193 4.29528 14.9035 5.61765H11.0809C11.3446 4.18041 12.1887 3.71814 13.0834 3.71814Z" fill="#282828"/>
<path d="M25.9445 6.94003H26.0538V6.36289C26.0538 3.88344 24.5646 2.23047 22.0013 2.23047C19.1071 2.23047 17.6992 4.21403 17.6992 6.60943V6.94003H25.9445ZM22.0013 3.71814C22.9941 3.71814 23.7373 4.29528 23.8214 5.61765H19.9989C20.2625 4.18041 21.1067 3.71814 22.0013 3.71814Z" fill="#282828"/>
<path d="M29.1054 6.93996C29.254 5.1217 30.4796 4.54456 31.5705 4.54456H32.1511V2.31445H31.9015C30.0168 2.31445 29.1559 4.46331 29.0886 4.67904V2.47975H26.9375V6.94276H29.1054V6.93996Z" fill="#282828"/>
<path d="M33.988 6.94003V6.60943C33.988 4.46057 34.9808 3.71814 36.0549 3.71814C37.129 3.71814 38.1218 4.46057 38.1218 6.60943V6.94003H40.3542V6.60943C40.3542 4.21403 39.0305 2.23047 36.0521 2.23047C33.0737 2.23047 31.75 4.21403 31.75 6.60943V6.94003H33.9824H33.988Z" fill="#282828"/>
<path d="M42.4682 2.47754H40.0703L41.9381 6.94055H44.106L42.4682 2.47754Z" fill="#282828"/>
<path d="M49.0018 2.47754H46.604L45.1484 6.94055H47.3163L49.0018 2.47754Z" fill="#282828"/>
<path d="M8.35277 8.92412V8.99416C9.01463 10.1905 10.2486 10.9917 12.0884 10.9917C14.6517 10.9917 15.7286 9.58811 16.0595 8.01639H13.9085C13.743 8.84287 13.1653 9.50406 12.1725 9.50406C11.0142 9.50406 10.1364 8.77563 10.0383 6.94336H7.78906C7.83113 7.66618 8.00781 8.34138 8.31631 8.92692H8.35557L8.35277 8.92412Z" fill="#282828"/>
<path d="M8.31641 8.92383C8.32762 8.94624 8.34165 8.96865 8.35567 8.99387V8.92383H8.31641Z" fill="#282828"/>
<path d="M21.0063 10.9878C23.5696 10.9878 24.6466 9.5842 24.9775 8.01248H22.8265C22.661 8.83896 22.0833 9.50015 21.0905 9.50015C19.9322 9.50015 19.0544 8.77173 18.9562 6.93945H16.707C16.8388 9.18637 18.2467 10.9878 21.0091 10.9878H21.0063Z" fill="#282828"/>
<path d="M25.9414 10.7413H28.0925V6.93945H26.9342H26.0508H25.9414V10.7413Z" fill="#282828"/>
<path d="M35.0621 10.9878C37.8919 10.9878 39.2324 9.18637 39.3474 6.93945H37.115C37.0169 8.83896 36.0717 9.50015 35.0649 9.50015C34.0581 9.50015 33.0962 8.83896 32.998 6.93945H30.7656C30.8806 9.18637 32.2212 10.9878 35.0677 10.9878H35.0621Z" fill="#282828"/>
<path d="M40.9453 6.93945L42.5495 10.7413H44.2041H44.8969L46.3215 6.93945H47.3143H45.1465H44.1537L43.6741 8.44393L43.1104 6.93945H44.1032H41.9353H40.9453Z" fill="#282828"/>
<path d="M4.21676 0H1.98438V2.47945H4.21676V0Z" fill="#282828"/>
<path d="M2.23238 6.94336H0V8.92692H2.23238V6.94336Z" fill="#282828"/>
<path d="M8.35461 8.92383H0V10.7421H8.35461V8.92383Z" fill="#282828"/>
<path d="M3.22066 2.47949H0.988281V6.9425H3.22066V2.47949Z" fill="#282828"/>
</svg>
